<!-- Generated by IcoMoon.io -->
<svg version="1.1" xmlns="http://www.w3.org/2000/svg" width="90" height="32" viewBox="0 0 90 32">
<title>WhatsApp-Image-2023-06-18-at-100833-AM</title>
<path d="M25.466 4.589c-2.22 0.261-4.039 1.043-5.427 2.347-1.41 1.311-2.058 3.066-1.974 5.293 0.078 1.952 0.613 3.172 1.959 4.441 1.191 1.121 2.185 1.572 6.774 3.059 1.339 0.437 1.995 0.733 2.566 1.156 0.825 0.606 1.050 1.064 1.001 2.044-0.035 0.761-0.169 1.078-0.627 1.487-0.62 0.571-1.762 0.846-2.777 0.691-1.381-0.218-2.206-1.015-2.509-2.425l-0.078-0.338h-6.4v0.31c0 0.789 0.444 2.312 0.909 3.108 1.339 2.319 3.813 3.743 7.189 4.13 1.050 0.12 3.165 0.049 4.011-0.141 1.346-0.289 2.425-0.719 3.362-1.339 0.536-0.345 1.417-1.142 1.734-1.558 0.127-0.176 0.261-0.331 0.282-0.352s0.183-0.289 0.359-0.599c0.648-1.156 0.902-2.164 0.902-3.609 0-1.854-0.493-3.094-1.727-4.342-1.114-1.128-2.361-1.762-5.843-2.974-2.544-0.881-3.419-1.276-4.004-1.79-0.585-0.522-0.86-1.339-0.691-2.065 0.282-1.212 1.064-1.762 2.502-1.762 0.522 0.007 0.811 0.042 1.107 0.148 0.98 0.338 1.642 1.114 1.783 2.065l0.049 0.338h3.235c2.1 0 3.242-0.028 3.27-0.070 0.078-0.127-0.176-1.487-0.395-2.15-0.818-2.46-2.862-4.159-5.843-4.856-1.276-0.303-3.32-0.409-4.701-0.247z"></path>
<path d="M61.322 4.56c-2.432 0.226-4.349 1.022-5.794 2.404-1.318 1.255-1.967 2.897-1.967 4.948 0.007 2.122 0.677 3.637 2.178 4.934 1.149 0.994 2.248 1.473 6.393 2.819 1.797 0.585 2.425 0.888 3.115 1.529 0.5 0.458 0.62 0.782 0.62 1.642 0 0.677-0.014 0.768-0.19 1.064-0.381 0.648-1.008 1.029-1.952 1.191-1.114 0.183-2.164-0.078-2.869-0.726-0.493-0.451-0.775-0.987-0.909-1.762l-0.049-0.261h-6.4v0.352c0 0.796 0.444 2.298 0.916 3.094 1.36 2.319 3.841 3.729 7.182 4.095 1.121 0.127 3.151 0.056 4.053-0.141 4.109-0.881 6.597-3.679 6.597-7.422 0-1.882-0.529-3.193-1.776-4.405-1.177-1.149-2.418-1.776-5.907-2.974-2.361-0.818-3.461-1.318-3.975-1.811-0.55-0.536-0.775-1.353-0.578-2.122 0.289-1.135 1.057-1.642 2.474-1.649 0.557 0 0.796 0.035 1.128 0.162 0.987 0.359 1.621 1.107 1.762 2.065l0.049 0.324h6.548l-0.049-0.374c-0.233-1.924-0.811-3.228-1.967-4.391-1.452-1.473-3.2-2.27-5.604-2.537-0.789-0.085-2.375-0.113-3.031-0.049z"></path>
<path d="M37.709 10.27c0 2.974 0.028 5.378 0.056 5.343 0.063-0.070 0.761-1.050 3.045-4.264 0.677-0.952 1.748-2.46 2.389-3.348 0.634-0.895 1.269-1.783 1.403-1.974 0.134-0.197 0.317-0.451 0.402-0.564 0.085-0.12 0.211-0.296 0.282-0.409l0.12-0.19h-7.697v5.406z"></path>
<path d="M50.389 7.274c-0.987 1.332-1.811 2.446-1.84 2.488-0.204 0.261-2.58 3.461-2.791 3.764-0.063 0.092-0.183 0.247-0.268 0.352-0.247 0.31-2.122 2.862-2.213 3.017-0.085 0.134-0.049 0.211 0.444 0.881 0.296 0.395 0.564 0.754 0.592 0.796 0.035 0.035 0.141 0.183 0.233 0.317s0.204 0.282 0.247 0.331c0.035 0.042 0.247 0.317 0.458 0.613s0.881 1.198 1.48 2.009c0.599 0.811 1.382 1.861 1.727 2.34 0.352 0.472 1.114 1.501 1.692 2.284 0.585 0.789 1.339 1.811 1.685 2.284s0.655 0.874 0.684 0.895c0.035 0.021 0.063-5.35 0.063-12.37v-12.412h-0.204c-0.183 0-0.359 0.218-1.988 2.411z"></path>
<path d="M37.709 24.233v5.441l3.729 0.014c2.058 0.014 3.806 0.007 3.884-0.014 0.141-0.035 0.007-0.247-1.276-2.044-2.601-3.651-3.44-4.828-3.503-4.899-0.028-0.042-0.247-0.338-0.472-0.67s-0.444-0.634-0.479-0.67c-0.028-0.042-0.437-0.613-0.902-1.269-0.472-0.663-0.881-1.226-0.916-1.269-0.035-0.035-0.063 2.115-0.063 5.378z"></path>
</svg>
