<?xml version="1.0" standalone="no"?>
<!DOCTYPE svg PUBLIC "-//W3C//DTD SVG 20010904//EN"
 "http://www.w3.org/TR/2001/REC-SVG-20010904/DTD/svg10.dtd">
<svg version="1.0" xmlns="http://www.w3.org/2000/svg"
 width="1280.000000pt" height="454.000000pt" viewBox="0 0 1280.000000 454.000000"
 preserveAspectRatio="xMidYMid meet">

<g transform="translate(0.000000,454.000000) scale(0.100000,-0.100000)"
fill="#ff0800" stroke="none">
<path d="M3613 3889 c-315 -37 -573 -148 -770 -333 -200 -186 -292 -435 -280
-751 11 -277 87 -450 278 -630 169 -159 310 -223 961 -434 190 -62 283 -104
364 -164 117 -86 149 -151 142 -290 -5 -108 -24 -153 -89 -211 -88 -81 -250
-120 -394 -98 -196 31 -313 144 -356 344 l-11 48 -454 0 -454 0 0 -44 c0 -112
63 -328 129 -441 190 -329 541 -531 1020 -586 149 -17 449 -7 569 20 191 41
344 102 477 190 76 49 201 162 246 221 18 25 37 47 40 50 3 3 26 41 51 85 92
164 128 307 128 512 0 263 -70 439 -245 616 -158 160 -335 250 -829 422 -361
125 -485 181 -568 254 -83 74 -122 190 -98 293 40 172 151 250 355 250 74 -1
115 -6 157 -21 139 -48 233 -158 253 -293 l7 -48 459 0 c298 0 460 4 464 10
11 18 -25 211 -56 305 -116 349 -406 590 -829 689 -181 43 -471 58 -667 35z"/>
<path d="M8700 3893 c-345 -32 -617 -145 -822 -341 -187 -178 -279 -411 -279
-702 1 -301 96 -516 309 -700 163 -141 319 -209 907 -400 255 -83 344 -126
442 -217 71 -65 88 -111 88 -233 0 -96 -2 -109 -27 -151 -54 -92 -143 -146
-277 -169 -158 -26 -307 11 -407 103 -70 64 -110 140 -129 250 l-7 37 -454 0
-454 0 0 -50 c0 -113 63 -326 130 -439 193 -329 545 -529 1019 -581 159 -18
447 -8 575 20 583 125 936 522 936 1053 0 267 -75 453 -252 625 -167 163 -343
252 -838 422 -335 116 -491 187 -564 257 -78 76 -110 192 -82 301 41 161 150
233 351 234 79 0 113 -5 160 -23 140 -51 230 -157 250 -293 l7 -46 464 0 465
0 -7 53 c-33 273 -115 458 -279 623 -206 209 -454 322 -795 360 -112 12 -337
16 -430 7z"/>
<path d="M5350 3083 c0 -422 4 -763 8 -758 9 10 108 149 432 605 96 135 248
349 339 475 90 127 180 253 199 280 19 28 45 64 57 80 12 17 30 42 40 58 l17
27 -546 0 -546 0 0 -767z"/>
<path d="M7149 3508 c-140 -189 -257 -347 -261 -353 -29 -37 -366 -491 -396
-534 -9 -13 -26 -35 -38 -50 -35 -44 -301 -406 -314 -428 -12 -19 -7 -30 63
-125 42 -56 80 -107 84 -113 5 -5 20 -26 33 -45 13 -19 29 -40 35 -47 5 -6 35
-45 65 -87 30 -42 125 -170 210 -285 85 -115 196 -264 245 -332 50 -67 158
-213 240 -324 83 -112 190 -257 239 -324 49 -67 93 -124 97 -127 5 -3 9 759 9
1755 l0 1761 -29 0 c-26 0 -51 -31 -282 -342z"/>
<path d="M5350 1102 l0 -772 529 -2 c292 -2 540 -1 551 2 20 5 1 35 -181 290
-369 518 -488 685 -497 695 -4 6 -35 48 -67 95 -32 47 -63 90 -68 95 -4 6 -62
87 -128 180 -67 94 -125 174 -130 180 -5 5 -9 -300 -9 -763z"/>
</g>
</svg>
