<svg aria-hidden="true" style="position: absolute; width: 0; height: 0; overflow: hidden;" version="1.1" xmlns="http://www.w3.org/2000/svg" xmlns:xlink="http://www.w3.org/1999/xlink">
<defs>
<symbol id="icon-envelope" viewBox="0 0 32 32">
<path d="M29 4h-26c-1.657 0-3 1.343-3 3v18c0 1.656 1.343 3 3 3h26c1.657 0 3-1.344 3-3v-18c0-1.657-1.343-3-3-3zM2.741 25.99l-0.731-0.732 8.249-8.248 0.731 0.732-8.249 8.248zM29.259 25.99l-8.249-8.248 0.731-0.732 8.249 8.248-0.731 0.732zM17 19.325v0.675h-2v-0.675l-12.997-12.050 1.272-1.272 12.725 11.798 12.725-11.798 1.272 1.272-12.997 12.050z"></path>
</symbol>
<symbol id="icon-facebook" viewBox="0 0 32 32">
<path fill="#fff" style="fill: var(--color1, #fff)" d="M31.997 15.999c0-8.836-7.163-15.999-15.999-15.999s-15.999 7.163-15.999 15.999c0 7.985 5.851 14.604 13.499 15.804v-11.18h-4.062v-4.625h4.062v-3.525c0-4.010 2.389-6.225 6.043-6.225 1.75 0 3.581 0.313 3.581 0.313v3.937h-2.017c-1.987 0-2.607 1.233-2.607 2.498v3.001h4.437l-0.709 4.625h-3.728v11.18c7.649-1.2 13.499-7.819 13.499-15.804z"></path>
</symbol>
<symbol id="icon-twitter" viewBox="0 0 32 32">
<path fill="#fff" style="fill: var(--color3, #fff)" d="M31.939 6.092c-1.18 0.519-2.44 0.872-3.767 1.033 1.352-0.815 2.392-2.099 2.884-3.631-1.268 0.74-2.673 1.279-4.169 1.579-1.195-1.279-2.897-2.079-4.788-2.079-3.623 0-6.56 2.937-6.56 6.556 0 0.52 0.060 1.020 0.169 1.499-5.453-0.257-10.287-2.876-13.521-6.835-0.569 0.963-0.888 2.081-0.888 3.3 0 2.28 1.16 4.284 2.917 5.461-1.076-0.035-2.088-0.331-2.971-0.821v0.081c0 3.18 2.257 5.832 5.261 6.436-0.551 0.148-1.132 0.228-1.728 0.228-0.419 0-0.82-0.040-1.221-0.115 0.841 2.604 3.26 4.503 6.139 4.556-2.24 1.759-5.079 2.807-8.136 2.807-0.52 0-1.039-0.031-1.56-0.089 2.919 1.859 6.357 2.945 10.076 2.945 12.072 0 18.665-9.995 18.665-18.648 0-0.279 0-0.56-0.020-0.84 1.281-0.919 2.4-2.080 3.28-3.397z"></path>
</symbol>
<symbol id="icon-instagram" viewBox="0 0 32 32">
<path d="M16 2.881c4.275 0 4.781 0.019 6.462 0.094 1.563 0.069 2.406 0.331 2.969 0.55 0.744 0.288 1.281 0.638 1.837 1.194 0.563 0.563 0.906 1.094 1.2 1.838 0.219 0.563 0.481 1.412 0.55 2.969 0.075 1.688 0.094 2.194 0.094 6.463s-0.019 4.781-0.094 6.463c-0.069 1.563-0.331 2.406-0.55 2.969-0.288 0.744-0.637 1.281-1.194 1.837-0.563 0.563-1.094 0.906-1.837 1.2-0.563 0.219-1.413 0.481-2.969 0.55-1.688 0.075-2.194 0.094-6.463 0.094s-4.781-0.019-6.463-0.094c-1.563-0.069-2.406-0.331-2.969-0.55-0.744-0.288-1.281-0.637-1.838-1.194-0.563-0.563-0.906-1.094-1.2-1.837-0.219-0.563-0.481-1.413-0.55-2.969-0.075-1.688-0.094-2.194-0.094-6.463s0.019-4.781 0.094-6.463c0.069-1.563 0.331-2.406 0.55-2.969 0.288-0.744 0.638-1.281 1.194-1.838 0.563-0.563 1.094-0.906 1.838-1.2 0.563-0.219 1.412-0.481 2.969-0.55 1.681-0.075 2.188-0.094 6.463-0.094zM16 0c-4.344 0-4.887 0.019-6.594 0.094-1.7 0.075-2.869 0.35-3.881 0.744-1.056 0.412-1.95 0.956-2.837 1.85-0.894 0.888-1.438 1.781-1.85 2.831-0.394 1.019-0.669 2.181-0.744 3.881-0.075 1.713-0.094 2.256-0.094 6.6s0.019 4.887 0.094 6.594c0.075 1.7 0.35 2.869 0.744 3.881 0.413 1.056 0.956 1.95 1.85 2.837 0.887 0.887 1.781 1.438 2.831 1.844 1.019 0.394 2.181 0.669 3.881 0.744 1.706 0.075 2.25 0.094 6.594 0.094s4.888-0.019 6.594-0.094c1.7-0.075 2.869-0.35 3.881-0.744 1.050-0.406 1.944-0.956 2.831-1.844s1.438-1.781 1.844-2.831c0.394-1.019 0.669-2.181 0.744-3.881 0.075-1.706 0.094-2.25 0.094-6.594s-0.019-4.887-0.094-6.594c-0.075-1.7-0.35-2.869-0.744-3.881-0.394-1.063-0.938-1.956-1.831-2.844-0.887-0.887-1.781-1.438-2.831-1.844-1.019-0.394-2.181-0.669-3.881-0.744-1.712-0.081-2.256-0.1-6.6-0.1v0z"></path>
<path d="M16 7.781c-4.537 0-8.219 3.681-8.219 8.219s3.681 8.219 8.219 8.219 8.219-3.681 8.219-8.219c0-4.537-3.681-8.219-8.219-8.219zM16 21.331c-2.944 0-5.331-2.387-5.331-5.331s2.387-5.331 5.331-5.331c2.944 0 5.331 2.387 5.331 5.331s-2.387 5.331-5.331 5.331z"></path>
<path d="M26.462 7.456c0 1.060-0.859 1.919-1.919 1.919s-1.919-0.859-1.919-1.919c0-1.060 0.859-1.919 1.919-1.919s1.919 0.859 1.919 1.919z"></path>
</symbol>

<symbol id="icon-cheveron-right" viewBox="0 0 20 20">
<path d="M12.95 10.707l0.707-0.707-5.657-5.657-1.414 1.414 4.242 4.243-4.242 4.243 1.414 1.414 4.95-4.95z"></path>
</symbol>
<symbol id="icon-cheveron-left" viewBox="0 0 20 20">
<path d="M7.050 9.293l-0.707 0.707 5.657 5.657 1.414-1.414-4.242-4.243 4.242-4.243-1.414-1.414z"></path>
</symbol>

<symbol id="icon-phone" viewBox="0 0 32 32">
<path d="M22 20c-2 2-2 4-4 4s-4-2-6-4-4-4-4-6 2-2 4-4-4-8-6-8-6 6-6 6c0 4 4.109 12.109 8 16s12 8 16 8c0 0 6-4 6-6s-6-8-8-6z"></path>
</symbol>
<symbol id="icon-mobile" viewBox="0 0 32 32">
<path d="M23 0h-14c-1.65 0-3 1.35-3 3v26c0 1.65 1.35 3 3 3h14c1.65 0 3-1.35 3-3v-26c0-1.65-1.35-3-3-3zM12 1.5h8v1h-8v-1zM16 30c-1.105 0-2-0.895-2-2s0.895-2 2-2 2 0.895 2 2-0.895 2-2 2zM24 24h-16v-20h16v20z"></path>
</symbol>
<symbol id="icon-circle-right" viewBox="0 0 32 32">
<path d="M16 0c-8.837 0-16 7.163-16 16s7.163 16 16 16 16-7.163 16-16-7.163-16-16-16zM16 29c-7.18 0-13-5.82-13-13s5.82-13 13-13 13 5.82 13 13-5.82 13-13 13z"></path>
<path d="M11.086 22.086l2.829 2.829 8.914-8.914-8.914-8.914-2.828 2.828 6.086 6.086z"></path>
</symbol>
<symbol id="icon-circle-left" viewBox="0 0 32 32">
<path d="M16 32c8.837 0 16-7.163 16-16s-7.163-16-16-16-16 7.163-16 16 7.163 16 16 16zM16 3c7.18 0 13 5.82 13 13s-5.82 13-13 13-13-5.82-13-13 5.82-13 13-13z"></path>
<path d="M20.914 9.914l-2.829-2.829-8.914 8.914 8.914 8.914 2.828-2.828-6.086-6.086z"></path>
</symbol>
<symbol id="icon-logo" viewBox="0 0 90 32">
<path d="M25.466 4.589c-2.22 0.261-4.039 1.043-5.427 2.347-1.41 1.311-2.058 3.066-1.974 5.293 0.078 1.952 0.613 3.172 1.959 4.441 1.191 1.121 2.185 1.572 6.774 3.059 1.339 0.437 1.995 0.733 2.566 1.156 0.825 0.606 1.050 1.064 1.001 2.044-0.035 0.761-0.169 1.078-0.627 1.487-0.62 0.571-1.762 0.846-2.777 0.691-1.381-0.218-2.206-1.015-2.509-2.425l-0.078-0.338h-6.4v0.31c0 0.789 0.444 2.312 0.909 3.108 1.339 2.319 3.813 3.743 7.189 4.13 1.050 0.12 3.165 0.049 4.011-0.141 1.346-0.289 2.425-0.719 3.362-1.339 0.536-0.345 1.417-1.142 1.734-1.558 0.127-0.176 0.261-0.331 0.282-0.352s0.183-0.289 0.359-0.599c0.648-1.156 0.902-2.164 0.902-3.609 0-1.854-0.493-3.094-1.727-4.342-1.114-1.128-2.361-1.762-5.843-2.974-2.544-0.881-3.419-1.276-4.004-1.79-0.585-0.522-0.86-1.339-0.691-2.065 0.282-1.212 1.064-1.762 2.502-1.762 0.522 0.007 0.811 0.042 1.107 0.148 0.98 0.338 1.642 1.114 1.783 2.065l0.049 0.338h3.235c2.1 0 3.242-0.028 3.27-0.070 0.078-0.127-0.176-1.487-0.395-2.15-0.818-2.46-2.862-4.159-5.843-4.856-1.276-0.303-3.32-0.409-4.701-0.247z"></path>
<path d="M61.322 4.56c-2.432 0.226-4.349 1.022-5.794 2.404-1.318 1.255-1.967 2.897-1.967 4.948 0.007 2.122 0.677 3.637 2.178 4.934 1.149 0.994 2.248 1.473 6.393 2.819 1.797 0.585 2.425 0.888 3.115 1.529 0.5 0.458 0.62 0.782 0.62 1.642 0 0.677-0.014 0.768-0.19 1.064-0.381 0.648-1.008 1.029-1.952 1.191-1.114 0.183-2.164-0.078-2.869-0.726-0.493-0.451-0.775-0.987-0.909-1.762l-0.049-0.261h-6.4v0.352c0 0.796 0.444 2.298 0.916 3.094 1.36 2.319 3.841 3.729 7.182 4.095 1.121 0.127 3.151 0.056 4.053-0.141 4.109-0.881 6.597-3.679 6.597-7.422 0-1.882-0.529-3.193-1.776-4.405-1.177-1.149-2.418-1.776-5.907-2.974-2.361-0.818-3.461-1.318-3.975-1.811-0.55-0.536-0.775-1.353-0.578-2.122 0.289-1.135 1.057-1.642 2.474-1.649 0.557 0 0.796 0.035 1.128 0.162 0.987 0.359 1.621 1.107 1.762 2.065l0.049 0.324h6.548l-0.049-0.374c-0.233-1.924-0.811-3.228-1.967-4.391-1.452-1.473-3.2-2.27-5.604-2.537-0.789-0.085-2.375-0.113-3.031-0.049z"></path>
<path d="M37.709 10.27c0 2.974 0.028 5.378 0.056 5.343 0.063-0.070 0.761-1.050 3.045-4.264 0.677-0.952 1.748-2.46 2.389-3.348 0.634-0.895 1.269-1.783 1.403-1.974 0.134-0.197 0.317-0.451 0.402-0.564 0.085-0.12 0.211-0.296 0.282-0.409l0.12-0.19h-7.697v5.406z"></path>
<path d="M50.389 7.274c-0.987 1.332-1.811 2.446-1.84 2.488-0.204 0.261-2.58 3.461-2.791 3.764-0.063 0.092-0.183 0.247-0.268 0.352-0.247 0.31-2.122 2.862-2.213 3.017-0.085 0.134-0.049 0.211 0.444 0.881 0.296 0.395 0.564 0.754 0.592 0.796 0.035 0.035 0.141 0.183 0.233 0.317s0.204 0.282 0.247 0.331c0.035 0.042 0.247 0.317 0.458 0.613s0.881 1.198 1.48 2.009c0.599 0.811 1.382 1.861 1.727 2.34 0.352 0.472 1.114 1.501 1.692 2.284 0.585 0.789 1.339 1.811 1.685 2.284s0.655 0.874 0.684 0.895c0.035 0.021 0.063-5.35 0.063-12.37v-12.412h-0.204c-0.183 0-0.359 0.218-1.988 2.411z"></path>
<path d="M37.709 24.233v5.441l3.729 0.014c2.058 0.014 3.806 0.007 3.884-0.014 0.141-0.035 0.007-0.247-1.276-2.044-2.601-3.651-3.44-4.828-3.503-4.899-0.028-0.042-0.247-0.338-0.472-0.67s-0.444-0.634-0.479-0.67c-0.028-0.042-0.437-0.613-0.902-1.269-0.472-0.663-0.881-1.226-0.916-1.269-0.035-0.035-0.063 2.115-0.063 5.378z"></path>
</symbol>
</defs>
</svg>
